<svg xmlns="http://www.w3.org/2000/svg" width="180" height="60" viewBox="0 0 180 60"><style>.flash { animation: f 0.9s steps(1,end) infinite; } @keyframes f { 0%,49% { opacity: 1; } 50%,100% { opacity: 0.15; } } .stripes { animation: roll 1.4s linear infinite; } @keyframes roll { to { transform: translateX(-24px); } }</style>
     <clipPath id="bar"><rect x="6" y="20" width="168" height="20"/></clipPath>
     <g clip-path="url(#bar)">
       <g class="stripes">
         <path d="M-24 40 L-12 20 L0 20 L-12 40 Z" fill="#ffb400"/><path d="M0 40 L12 20 L24 20 L12 40 Z" fill="#ffb400"/><path d="M24 40 L36 20 L48 20 L36 40 Z" fill="#ffb400"/><path d="M48 40 L60 20 L72 20 L60 40 Z" fill="#ffb400"/><path d="M72 40 L84 20 L96 20 L84 40 Z" fill="#ffb400"/><path d="M96 40 L108 20 L120 20 L108 40 Z" fill="#ffb400"/><path d="M120 40 L132 20 L144 20 L132 40 Z" fill="#ffb400"/><path d="M144 40 L156 20 L168 20 L156 40 Z" fill="#ffb400"/><path d="M168 40 L180 20 L192 20 L180 40 Z" fill="#ffb400"/><path d="M192 40 L204 20 L216 20 L204 40 Z" fill="#ffb400"/>
         <rect x="-24" y="20" width="216" height="20" fill="#111111" opacity="0.001"/>
       </g>
     </g>
     <rect x="6" y="20" width="168" height="20" fill="none" stroke="#111111" stroke-width="2"/>
     <rect x="6" y="20" width="168" height="20" fill="#111111" opacity="0.08"/>
     <circle class="flash" cx="14" cy="12" r="5" fill="#ff3b30" stroke="#8c0000" stroke-width="1.5"/>
     <circle class="flash" cx="166" cy="12" r="5" fill="#ff3b30" stroke="#8c0000" stroke-width="1.5" style="animation-delay:.45s"/>
     <text x="90" y="55" text-anchor="middle" font-family="Verdana,sans-serif" font-size="10" font-weight="bold" fill="#111111">UNDER CONSTRUCTION</text></svg>
